<svg height="512" viewBox="0 0 64 64" width="512" xmlns="http://www.w3.org/2000/svg"><path d="M61 12l-2 22s-32.09 3-38 3C7.75 37 3 32 3 32a5.2 5.2 0 01.7-1 9.14 9.14 0 01.99-1c1.65-1.43 4.76-3.2 10.31-3.8.26-.02.64-.06 1-.1.53-.05 1-.1 1-.1h34l6-14z" fill="#87cee9"/><path d="M48 31l7 8h4l-4-8zm-28 3l15 15h4l-6-15zm0-8l15-13h4l-6 13z" fill="#32b1cc"/><path d="M18 29h2v2h-2zm4 0h2v2h-2zm4 0h2v2h-2zm4 0h2v2h-2zm4 0h2v2h-2zm4 0h2v2h-2zm4 0h2v2h-2z" fill="#fcf05a"/><path d="M16 26.1V31H3.7a9.14 9.14 0 01.99-1c1.65-1.43 4.76-3.2 10.31-3.8.26-.02.64-.06 1-.1z" fill="#ffd782"/></svg>