<svg width="27" height="27" viewBox="0 0 27 27" fill="none" xmlns="http://www.w3.org/2000/svg"><path d="M26.533 7.118c-.33-1.436-1.505-2.496-2.919-2.654-3.348-.373-6.736-.375-10.11-.373-3.373-.002-6.763 0-10.111.373C1.98 4.622.806 5.682.476 7.118.006 9.163 0 11.395 0 13.5c0 2.105 0 4.337.47 6.382.33 1.436 1.504 2.495 2.918 2.653 3.348.374 6.737.376 10.111.374 3.374.002 6.763 0 10.11-.374 1.413-.158 2.588-1.217 2.919-2.653.47-2.045.472-4.277.472-6.382 0-2.105.004-4.337-.467-6.382zM10.016 17.69V8.76l8.583 4.479-8.583 4.45z"/></svg>
