<svg width="21" height="21" viewBox="0 0 21 21" fill="none" xmlns="http://www.w3.org/2000/svg"><path d="M14.438 0H6.561A6.563 6.563 0 000 6.563v7.875A6.563 6.563 0 006.563 21h7.875A6.563 6.563 0 0021 14.437V6.564A6.563 6.563 0 0014.437 0zm4.593 14.438a4.599 4.599 0 01-4.593 4.593H6.561a4.599 4.599 0 01-4.593-4.593V6.561A4.599 4.599 0 016.562 1.97h7.875a4.599 4.599 0 014.594 4.593v7.875z" fill="#fff"/><path d="M10.5 5.25a5.25 5.25 0 100 10.5 5.25 5.25 0 000-10.5zm0 8.531A3.286 3.286 0 017.219 10.5 3.285 3.285 0 0110.5 7.219a3.285 3.285 0 013.281 3.281 3.286 3.286 0 01-3.281 3.281zm5.644-8.225a.7.7 0 100-1.4.7.7 0 000 1.4z"/></svg>
