<svg xmlns="http://www.w3.org/2000/svg" xmlns:xlink="http://www.w3.org/1999/xlink"><defs><clipPath id="clip0"><path d="M0 0h25v25H0z"/></clipPath></defs><symbol id="icon-bed" viewBox="0 0 640 512"><path d="M176 256c44.11 0 80-35.89 80-80s-35.89-80-80-80-80 35.89-80 80 35.89 80 80 80zm352-128H304c-8.84 0-16 7.16-16 16v144H64V80c0-8.84-7.16-16-16-16H16C7.16 64 0 71.16 0 80v352c0 8.84 7.16 16 16 16h32c8.84 0 16-7.16 16-16v-48h512v48c0 8.84 7.16 16 16 16h32c8.84 0 16-7.16 16-16V240c0-61.86-50.14-112-112-112z"/></symbol><symbol id="icon-instagram"><path d="M14.438 0H6.561A6.563 6.563 0 000 6.563v7.875A6.563 6.563 0 006.563 21h7.875A6.563 6.563 0 0021 14.437V6.564A6.563 6.563 0 0014.437 0zm4.593 14.438a4.599 4.599 0 01-4.593 4.593H6.561a4.599 4.599 0 01-4.593-4.593V6.561A4.599 4.599 0 016.562 1.97h7.875a4.599 4.599 0 014.594 4.593v7.875z" fill="#fff"/><path d="M10.5 5.25a5.25 5.25 0 100 10.5 5.25 5.25 0 000-10.5zm0 8.531A3.286 3.286 0 017.219 10.5 3.285 3.285 0 0110.5 7.219a3.285 3.285 0 013.281 3.281 3.286 3.286 0 01-3.281 3.281zm5.644-8.225a.7.7 0 100-1.4.7.7 0 000 1.4z"/></symbol><symbol id="icon-plane" viewBox="0 0 640 512"><path d="M624 448H16c-8.84 0-16 7.16-16 16v32c0 8.84 7.16 16 16 16h608c8.84 0 16-7.16 16-16v-32c0-8.84-7.16-16-16-16zM80.55 341.27c6.28 6.84 15.1 10.72 24.33 10.71l130.54-.18a65.62 65.62 0 0029.64-7.12l290.96-147.65c26.74-13.57 50.71-32.94 67.02-58.31 18.31-28.48 20.3-49.09 13.07-63.65-7.21-14.57-24.74-25.27-58.25-27.45-29.85-1.94-59.54 5.92-86.28 19.48l-98.51 49.99-218.7-82.06a17.799 17.799 0 00-18-1.11L90.62 67.29c-10.67 5.41-13.25 19.65-5.17 28.53l156.22 98.1-103.21 52.38-72.35-36.47a17.804 17.804 0 00-16.07.02L9.91 230.22c-10.44 5.3-13.19 19.12-5.57 28.08l76.21 82.97z"/></symbol><symbol id="icon-route" viewBox="0 0 512 512"><path d="M416 320h-96c-17.6 0-32-14.4-32-32s14.4-32 32-32h96s96-107 96-160-43-96-96-96-96 43-96 96c0 25.5 22.2 63.4 45.3 96H320c-52.9 0-96 43.1-96 96s43.1 96 96 96h96c17.6 0 32 14.4 32 32s-14.4 32-32 32H185.5c-16 24.8-33.8 47.7-47.3 64H416c52.9 0 96-43.1 96-96s-43.1-96-96-96zm0-256c17.7 0 32 14.3 32 32s-14.3 32-32 32-32-14.3-32-32 14.3-32 32-32zM96 256c-53 0-96 43-96 96s96 160 96 160 96-107 96-160-43-96-96-96zm0 128c-17.7 0-32-14.3-32-32s14.3-32 32-32 32 14.3 32 32-14.3 32-32 32z"/></symbol><symbol id="icon-twitter"><g clip-path="url(#clip0)"><path d="M25 4.748c-.93.408-1.92.679-2.953.81a5.097 5.097 0 002.255-2.833 10.246 10.246 0 01-3.25 1.24 5.124 5.124 0 00-8.866 3.505c0 .407.034.797.119 1.17C8.044 8.43 4.273 6.39 1.74 3.277a5.16 5.16 0 00-.702 2.59 5.13 5.13 0 002.277 4.26A5.061 5.061 0 011 9.497v.056a5.15 5.15 0 004.106 5.036 5.118 5.118 0 01-1.343.169c-.329 0-.66-.019-.97-.088.663 2.03 2.548 3.522 4.788 3.57a10.298 10.298 0 01-6.354 2.187c-.42 0-.824-.02-1.227-.07 2.27 1.463 4.96 2.3 7.862 2.3 9.432 0 14.588-7.813 14.588-14.585 0-.227-.008-.445-.019-.663A10.225 10.225 0 0025 4.75z"/></g></symbol><symbol id="icon-youtube"><path d="M26.533 7.118c-.33-1.436-1.505-2.496-2.919-2.654-3.348-.373-6.736-.375-10.11-.373-3.373-.002-6.763 0-10.111.373C1.98 4.622.806 5.682.476 7.118.006 9.163 0 11.395 0 13.5c0 2.105 0 4.337.47 6.382.33 1.436 1.504 2.495 2.918 2.653 3.348.374 6.737.376 10.111.374 3.374.002 6.763 0 10.11-.374 1.413-.158 2.588-1.217 2.919-2.653.47-2.045.472-4.277.472-6.382 0-2.105.004-4.337-.467-6.382zM10.016 17.69V8.76l8.583 4.479-8.583 4.45z"/></symbol></svg>